<?xml version="1.0" standalone="no"?>
<!DOCTYPE svg PUBLIC "-//W3C//DTD SVG 20010904//EN"
 "http://www.w3.org/TR/2001/REC-SVG-20010904/DTD/svg10.dtd">
<svg version="1.0" xmlns="http://www.w3.org/2000/svg"
 width="225.000000pt" height="225.000000pt" viewBox="0 0 225.000000 225.000000"
 preserveAspectRatio="xMidYMid meet">
<metadata>
Created by potrace 1.16, written by Peter Selinger 2001-2019
</metadata>
<g transform="translate(0.000000,225.000000) scale(0.100000,-0.100000)"
fill="#000000" stroke="none">
<path d="M844 1990 c-42 -9 -54 -18 -54 -38 0 -20 -52 -52 -85 -52 -31 0 -55
-35 -55 -79 0 -24 -9 -44 -35 -72 -25 -28 -35 -49 -35 -72 0 -17 -4 -38 -9
-46 -5 -8 -6 -24 -1 -36 6 -16 4 -29 -7 -44 -12 -19 -13 -30 -4 -68 7 -24 9
-53 6 -63 -3 -10 -1 -21 5 -25 6 -3 16 -21 24 -38 7 -18 32 -51 55 -74 29 -29
41 -48 37 -60 -7 -22 8 -48 22 -39 5 3 17 -10 26 -29 9 -19 21 -35 26 -35 5 0
12 -9 15 -20 4 -11 15 -20 26 -20 38 0 34 -31 -10 -72 -23 -22 -48 -53 -57
-69 -8 -17 -23 -29 -33 -29 -35 0 -183 -84 -238 -134 -69 -63 -83 -91 -83
-168 0 -61 -11 -113 -46 -228 -9 -30 -20 -75 -24 -100 -4 -25 -14 -76 -23
-115 -8 -38 -18 -91 -22 -118 l-6 -47 750 0 750 0 -5 27 c-8 44 -24 63 -17 21
7 -48 -9 -49 -26 -3 -9 27 -10 39 -2 49 9 11 4 20 -19 40 -36 30 -21 35 19 7
29 -21 56 -68 66 -113 l5 -28 235 0 235 0 0 189 c0 160 -2 191 -16 202 -9 7
-22 30 -31 51 -8 20 -23 40 -34 43 -10 4 -22 17 -25 30 -3 13 -14 31 -25 41
-10 9 -19 23 -19 29 0 7 -9 24 -20 38 -12 14 -34 59 -51 99 -16 40 -38 82 -48
93 -10 11 -21 27 -24 36 -6 19 -115 103 -170 130 -20 11 -79 26 -130 33 -91
12 -142 31 -166 59 -10 13 -8 16 8 22 12 3 21 12 21 19 0 15 38 50 63 59 11 4
15 12 11 19 -5 9 -3 9 9 -1 15 -12 17 -9 19 30 1 49 2 51 11 94 4 17 9 59 13
95 3 36 8 68 11 73 3 5 -6 29 -18 54 -18 33 -21 47 -11 50 18 7 15 37 -8 78
-11 20 -20 42 -20 49 0 17 -56 66 -76 66 -7 0 -16 11 -20 24 -3 13 -19 37 -36
52 -16 16 -36 43 -43 59 -28 61 -46 74 -105 75 -65 0 -180 -8 -197 -14 -7 -3
-25 1 -40 9 -29 16 -179 19 -239 5z m272 -400 c-1 -10 39 -70 47 -70 18 0 64
-66 54 -76 -3 -3 -20 1 -39 9 -18 8 -64 17 -101 21 -37 4 -67 12 -67 17 0 5 9
9 20 9 14 0 18 5 13 16 -4 11 -8 12 -13 4 -5 -8 -10 -9 -14 -2 -12 20 32 35
66 23 17 -6 38 -11 46 -11 24 0 5 13 -24 16 -35 4 -52 20 -49 47 1 12 3 31 4
42 1 18 4 17 29 -10 16 -17 28 -32 28 -35z m148 -291 c20 -55 18 -101 -7 -161
-11 -27 -22 -38 -36 -38 -12 0 -21 -5 -21 -11 0 -6 -6 -9 -14 -6 -7 3 -18 1
-24 -5 -7 -7 -17 -6 -33 3 -13 7 -37 15 -53 18 -36 8 -45 26 -16 34 54 14 -4
63 -65 54 -16 -2 -37 0 -46 6 -14 9 -14 16 4 78 16 53 24 69 39 69 12 0 18 -7
18 -23 0 -13 7 -32 15 -43 14 -19 14 -19 15 3 0 12 -4 25 -10 28 -5 3 -10 13
-10 22 0 10 15 0 41 -27 23 -23 44 -38 48 -34 10 14 69 54 80 54 5 0 12 6 14
13 3 6 6 -1 7 -18 l2 -30 9 33 c5 17 13 32 17 32 5 0 16 -23 26 -51z m124
-765 c15 -26 2 -55 -30 -69 -28 -11 -26 -12 44 -19 40 -3 75 -11 76 -16 2 -6
13 -10 25 -10 30 -1 62 -22 62 -40 0 -18 -66 -50 -104 -50 -18 0 -32 9 -46 30
-24 36 -25 36 -75 10 -42 -22 -70 -26 -70 -10 0 5 -7 7 -15 4 -11 -4 -15 1
-15 17 l0 24 -20 -25 c-11 -14 -20 -20 -20 -14 0 6 9 23 20 37 11 14 20 33 20
44 -1 17 -1 17 -14 0 -10 -13 -16 -15 -21 -6 -4 6 -1 15 6 20 13 8 20 7 82 -6
27 -5 38 8 15 19 -10 5 -10 7 0 12 7 3 19 19 27 35 17 32 39 38 53 13z"/>
</g>
</svg>
