<?xml version="1.0" standalone="no"?>
<!DOCTYPE svg PUBLIC "-//W3C//DTD SVG 20010904//EN"
 "http://www.w3.org/TR/2001/REC-SVG-20010904/DTD/svg10.dtd">
<svg version="1.0" xmlns="http://www.w3.org/2000/svg"
 width="225.000000pt" height="225.000000pt" viewBox="0 0 225.000000 225.000000"
 preserveAspectRatio="xMidYMid meet">

<g transform="translate(0.000000,225.000000) scale(0.100000,-0.100000)"
fill="#000000" stroke="none">
<path d="M865 1982 c-63 -10 -65 -11 -63 -45 3 -26 0 -31 -15 -29 -11 2 -27
-4 -37 -13 -9 -8 -24 -13 -34 -9 -27 11 -46 -15 -46 -63 0 -39 -5 -49 -40 -81
-35 -31 -40 -40 -34 -64 3 -17 1 -35 -7 -44 -9 -11 -9 -20 0 -41 10 -22 9 -28
-7 -44 -21 -19 -19 -69 3 -69 14 0 9 -47 -6 -56 -16 -10 -9 -25 9 -20 14 5 17
-1 18 -26 1 -19 10 -38 23 -49 11 -9 21 -21 21 -26 0 -4 12 -19 26 -32 17 -17
24 -32 21 -48 -4 -19 -1 -22 19 -17 20 5 24 1 30 -31 5 -26 9 -33 15 -23 7 10
9 9 9 -5 0 -10 4 -16 8 -13 5 3 8 -5 8 -17 -1 -15 6 -23 22 -25 12 -2 26 -12
32 -22 8 -14 2 -25 -31 -56 -22 -22 -52 -56 -65 -76 -14 -23 -32 -38 -44 -38
-26 0 -160 -70 -211 -111 -23 -18 -54 -51 -70 -72 -24 -34 -29 -50 -29 -101 0
-62 -14 -135 -45 -236 -10 -30 -21 -75 -25 -100 -4 -25 -14 -74 -23 -110 -8
-36 -18 -89 -22 -117 l-7 -53 745 0 746 0 -5 27 c-8 44 -24 63 -17 21 7 -48
-9 -49 -26 -3 -9 27 -10 39 -2 49 9 11 4 20 -19 40 -36 30 -21 35 19 7 29 -21
56 -68 66 -113 l5 -28 235 0 235 0 0 183 c0 183 0 184 -25 207 -14 13 -25 30
-25 38 0 7 -12 26 -28 41 -30 30 -82 106 -82 119 0 4 -11 23 -25 42 -14 19
-34 59 -46 89 -11 31 -31 70 -45 88 -13 17 -24 35 -24 40 0 11 -93 83 -151
117 -43 24 -194 60 -210 50 -4 -2 -24 3 -45 12 -58 24 -121 88 -81 83 32 -4
45 3 51 27 4 15 10 24 13 20 3 -3 12 3 20 14 8 11 20 17 28 14 9 -4 15 0 15
10 0 11 5 13 17 9 17 -7 17 -6 0 20 -9 14 -17 32 -17 39 0 10 2 10 9 0 8 -14
20 32 27 113 2 22 6 46 9 54 3 7 1 19 -5 26 -7 9 -6 16 3 24 12 9 10 19 -9 59
-27 55 -30 74 -9 66 22 -9 19 19 -4 35 -11 8 -17 20 -14 27 2 7 -5 15 -16 19
-24 7 -28 25 -6 25 8 0 15 5 15 10 0 6 -12 10 -26 10 -19 0 -25 4 -20 15 3 10
-1 15 -12 15 -22 0 -42 19 -42 40 0 9 -14 29 -31 46 -17 16 -37 43 -45 59 -40
81 -36 77 -78 70 -25 -4 -42 -2 -46 6 -6 8 -14 8 -31 -2 -34 -18 -147 -20
-186 -3 -29 13 -144 17 -208 6z m251 -392 c-1 -10 39 -70 47 -70 18 0 64 -66
54 -76 -3 -3 -20 1 -39 9 -18 8 -64 17 -101 21 -37 4 -67 12 -67 17 0 5 9 9
20 9 14 0 18 5 13 16 -4 11 -8 12 -13 4 -5 -8 -10 -9 -14 -2 -12 20 32 35 66
23 17 -6 38 -11 46 -11 24 0 5 13 -24 16 -35 4 -52 20 -49 47 1 12 3 31 4 42
1 18 4 17 29 -10 16 -17 28 -32 28 -35z m-143 11 l17 -29 -42 -15 c-24 -9 -56
-19 -73 -22 -28 -6 -29 -6 -12 13 9 10 14 22 10 25 -10 11 30 43 50 39 9 -2
17 1 17 7 0 20 16 11 33 -18z m7 -70 c0 -12 -25 -21 -58 -21 -21 0 -24 -2 -12
-10 8 -5 29 -7 46 -4 26 5 32 2 37 -15 6 -25 -11 -39 -25 -20 -7 11 -8 9 -6
-6 2 -11 8 -20 13 -21 35 -3 62 -34 29 -34 -10 0 -14 -7 -12 -22 2 -15 -2 -23
-12 -23 -8 0 -16 10 -18 22 -2 13 -23 39 -47 59 -34 27 -43 41 -42 62 2 21 9
28 32 33 46 10 75 10 75 0z m170 -106 c11 -13 6 -15 -31 -15 -24 0 -55 3 -68
7 -23 6 -23 7 -5 14 33 13 91 10 104 -6z m-230 -29 c0 -2 -9 -6 -20 -9 -11 -3
-20 -1 -20 4 0 5 9 9 20 9 11 0 20 -2 20 -4z m236 -13 c0 -13 -9 -18 -31 -20
-25 -1 -26 0 -10 7 18 8 17 9 -8 9 -39 1 -24 21 16 21 25 0 33 -4 33 -17z
m108 -84 c20 -55 18 -101 -7 -161 -11 -27 -22 -38 -36 -38 -12 0 -21 -5 -21
-11 0 -6 -6 -9 -14 -6 -7 3 -18 1 -24 -5 -7 -7 -17 -6 -33 3 -13 7 -37 15 -53
18 -36 8 -45 26 -16 34 54 14 -4 63 -65 54 -16 -2 -37 0 -46 6 -14 9 -14 16 4
78 16 53 24 69 39 69 12 0 18 -7 18 -23 0 -13 7 -32 15 -43 14 -19 14 -19 15
3 0 12 -4 25 -10 28 -5 3 -10 13 -10 22 0 10 15 0 41 -27 23 -23 44 -38 48
-34 10 14 69 54 80 54 5 0 12 6 14 13 3 6 6 -1 7 -18 l2 -30 9 33 c5 17 13 32
17 32 5 0 16 -23 26 -51z m-354 31 c0 -5 -8 -10 -17 -10 -15 0 -16 2 -3 10 19
12 20 12 20 0z m503 -124 c8 5 8 3 0 -7 -19 -20 -37 3 -27 32 8 24 9 24 12 -4
2 -17 8 -25 15 -21z m-525 -7 c-20 -13 -38 -11 -38 5 0 9 8 12 26 8 19 -3 22
-7 12 -13z m23 -95 l-7 -28 -16 32 c-15 29 -15 33 0 48 14 15 16 15 23 -4 4
-11 4 -33 0 -48z m119 26 c0 -5 -5 -10 -11 -10 -5 0 -7 5 -4 10 3 6 8 10 11
10 2 0 4 -4 4 -10z m38 -45 c32 -9 28 -27 -5 -18 -16 4 -40 7 -55 6 -31 -2
-38 13 -10 20 18 5 31 3 70 -8z m7 -55 c-8 -13 -71 -24 -87 -14 -9 6 -2 11 22
15 55 10 72 10 65 -1z m52 -83 c8 -14 -4 -19 -52 -23 -46 -4 -54 3 -33 24 14
14 76 13 85 -1z m200 -369 c-3 -7 -5 -2 -5 12 0 14 2 19 5 13 2 -7 2 -19 0
-25z m383 -12 c0 -3 -4 -8 -10 -11 -5 -3 -10 -1 -10 4 0 6 5 11 10 11 6 0 10
-2 10 -4z m-393 -38 c-3 -8 -6 -5 -6 6 -1 11 2 17 5 13 3 -3 4 -12 1 -19z m71
6 c15 -26 2 -55 -30 -69 -28 -11 -26 -12 44 -19 40 -3 75 -11 76 -16 2 -6 13
-10 25 -10 30 -1 62 -22 62 -40 0 -18 -66 -50 -104 -50 -18 0 -32 9 -46 30
-24 36 -25 36 -75 10 -42 -22 -70 -26 -70 -10 0 5 -7 7 -15 4 -11 -4 -15 1
-15 17 l0 24 -20 -25 c-11 -14 -20 -20 -20 -14 0 6 9 23 20 37 11 14 20 33 20
44 -1 17 -1 17 -14 0 -10 -13 -16 -15 -21 -6 -4 6 -1 15 6 20 13 8 20 7 82 -6
27 -5 38 8 15 19 -10 5 -10 7 0 12 7 3 19 19 27 35 17 32 39 38 53 13z m-320
-59 c-3 -3 -9 2 -12 12 -6 14 -5 15 5 6 7 -7 10 -15 7 -18z m762 -55 c0 -5 -2
-10 -4 -10 -3 0 -8 5 -11 10 -3 6 -1 10 4 10 6 0 11 -4 11 -10z m-222 -55 c-3
-3 -9 2 -12 12 -6 14 -5 15 5 6 7 -7 10 -15 7 -18z m49 9 c-3 -3 -12 -4 -19
-1 -8 3 -5 6 6 6 11 1 17 -2 13 -5z m-428 -66 c-12 -42 -29 -59 -29 -29 0 26
17 61 30 61 5 0 5 -13 -1 -32z m961 -9 c0 -6 -4 -7 -10 -4 -5 3 -10 11 -10 16
0 6 5 7 10 4 6 -3 10 -11 10 -16z m-616 -15 c9 -33 -4 -47 -41 -44 -15 1 -42
2 -59 3 l-31 1 21 24 c41 48 100 56 110 16z m-158 -55 c1 -21 -3 -29 -12 -25
-7 3 -14 1 -16 -4 -2 -5 -15 -12 -30 -15 -22 -6 -28 -4 -28 10 0 9 4 14 8 11
4 -2 14 -1 22 5 10 6 11 9 3 9 -29 0 -11 29 20 33 17 2 32 5 32 5 0 1 0 -12 1
-29z m85 -2 c-1 -12 -15 -9 -19 4 -3 6 1 10 8 8 6 -3 11 -8 11 -12z m-272 -23
c3 -16 1 -17 -13 -5 -19 16 -21 34 -3 29 6 -3 14 -13 16 -24z m411 -15 c0 -6
-7 -9 -14 -6 -10 4 -13 1 -9 -9 3 -8 -3 -23 -13 -33 -18 -17 -19 -17 -34 1
-13 16 -19 17 -48 7 -18 -6 -36 -9 -39 -5 -3 3 0 7 8 10 22 7 42 16 69 31 30
17 80 20 80 4z m-456 -38 c-9 -10 -26 18 -18 30 5 9 9 8 14 -7 4 -10 6 -21 4
-23z m283 -28 c-6 -38 -27 -60 -38 -41 -4 5 -16 7 -28 3 -15 -4 -23 -1 -27 10
-9 21 41 64 75 65 22 0 23 -3 18 -37z m188 -33 c-3 -5 -11 -10 -16 -10 -6 0
-7 5 -4 10 3 6 11 10 16 10 6 0 7 -4 4 -10z m165 -4 c0 13 28 -17 33 -35 3
-14 0 -17 -14 -14 -15 4 -18 2 -12 -13 6 -17 5 -17 -10 -5 -10 8 -15 16 -13
19 3 2 -2 18 -10 34 -15 29 -15 29 5 18 12 -6 21 -8 21 -4z m-200 -15 c0 -20
-25 -35 -41 -25 -15 9 -10 32 9 37 30 8 32 7 32 -12z m67 -33 c-3 -8 -6 -5 -6
6 -1 11 2 17 5 13 3 -3 4 -12 1 -19z"/>
<path d="M1040 1246 c0 -3 10 -14 22 -26 25 -23 80 -27 97 -6 10 12 7 13 -24
4 -31 -10 -39 -9 -65 11 -17 12 -30 19 -30 17z"/>
<path d="M1281 416 c-19 -22 -10 -40 11 -24 11 8 15 18 9 26 -6 10 -10 10 -20
-2z"/>
<path d="M1490 281 c0 -5 7 -11 15 -15 8 -3 15 -1 15 3 0 5 -7 11 -15 15 -8 3
-15 1 -15 -3z"/>
<path d="M1596 63 c-6 -14 -5 -15 5 -6 7 7 10 15 7 18 -3 3 -9 -2 -12 -12z"/>
</g>
</svg>
